<svg width="16" height="16" viewBox="0 0 16 16" fill="none" xmlns="http://www.w3.org/2000/svg">
<path d="M14.351 8.931L11.862 3.262C11.8436 3.22152 11.8182 3.18461 11.787 3.153C11.4499 2.81635 10.9929 2.62725 10.5165 2.62725C10.0401 2.62725 9.58312 2.81635 9.246 3.153C9.21281 3.18641 9.18654 3.22605 9.16869 3.26964C9.15084 3.31322 9.14177 3.3599 9.142 3.407V5.023H6.984V3.407C6.98409 3.35983 6.97486 3.31311 6.95684 3.26952C6.93883 3.22593 6.91237 3.18633 6.879 3.153C6.54188 2.81635 6.08493 2.62725 5.6085 2.62725C5.13207 2.62725 4.67512 2.81635 4.338 3.153C4.30711 3.18469 4.28206 3.22159 4.264 3.262L1.774 8.932C1.58486 9.30343 1.48246 9.71293 1.47451 10.1297C1.46657 10.5464 1.55328 10.9595 1.72813 11.3379C1.90298 11.7162 2.1614 12.05 2.48394 12.314C2.80647 12.578 3.1847 12.7654 3.59015 12.8621C3.9956 12.9587 4.4177 12.9621 4.82466 12.872C5.23161 12.7819 5.61281 12.6006 5.93955 12.3418C6.26629 12.083 6.53005 11.7535 6.71097 11.378C6.89188 11.0025 6.98524 10.5908 6.984 10.174V5.742H9.139V10.175C9.13836 10.5916 9.23219 11.0028 9.41342 11.3779C9.59466 11.7529 9.85859 12.082 10.1853 12.3404C10.5121 12.5987 10.8932 12.7796 11.3 12.8694C11.7067 12.9592 12.1285 12.9557 12.5337 12.8589C12.9389 12.7622 13.3168 12.5749 13.6392 12.311C13.9615 12.0471 14.2198 11.7136 14.3946 11.3355C14.5694 10.9574 14.6562 10.5446 14.6485 10.1281C14.6408 9.71165 14.5397 9.30234 14.351 8.931ZM4.23 12.211C3.69002 12.211 3.17215 11.9965 2.79033 11.6147C2.40851 11.2328 2.194 10.715 2.194 10.175C2.194 9.63502 2.40851 9.11715 2.79033 8.73533C3.17215 8.35351 3.69002 8.139 4.23 8.139C4.76998 8.139 5.28784 8.35351 5.66967 8.73533C6.05149 9.11715 6.266 9.63502 6.266 10.175C6.266 10.715 6.05149 11.2328 5.66967 11.6147C5.28784 11.9965 4.76998 12.211 4.23 12.211ZM4.23 7.419C3.847 7.419 3.469 7.499 3.119 7.654L4.891 3.617C5.0785 3.45016 5.31835 3.35397 5.56917 3.34503C5.82 3.33608 6.06609 3.41494 6.265 3.568V8.316C6.00701 8.03263 5.69259 7.80635 5.34196 7.65169C4.99133 7.49704 4.61222 7.41744 4.229 7.418M9.859 3.569C10.0579 3.41594 10.304 3.33708 10.5548 3.34603C10.8057 3.35497 11.0455 3.45116 11.233 3.618L13.006 7.653C12.4782 7.41907 11.8901 7.35732 11.3252 7.47651C10.7603 7.5957 10.2473 7.88977 9.859 8.317V3.569ZM11.895 12.209C11.6239 12.215 11.3543 12.1668 11.1021 12.0672C10.8499 11.9676 10.6201 11.8186 10.4263 11.629C10.2324 11.4394 10.0784 11.213 9.97321 10.9631C9.86805 10.7131 9.81388 10.4447 9.81388 10.1735C9.81388 9.90233 9.86805 9.63389 9.97321 9.38395C10.0784 9.134 10.2324 8.90757 10.4263 8.71797C10.6201 8.52836 10.8499 8.37938 11.1021 8.27979C11.3543 8.1802 11.6239 8.13199 11.895 8.138C12.435 8.138 12.9528 8.35251 13.3347 8.73433C13.7165 9.11615 13.931 9.63402 13.931 10.174C13.931 10.714 13.7165 11.2318 13.3347 11.6137C12.9528 11.9955 12.435 12.21 11.895 12.21" fill="#B66153"/>
</svg>
