<svg width="16" height="16" viewBox="0 0 16 16" fill="none" xmlns="http://www.w3.org/2000/svg">
<path fill-rule="evenodd" clip-rule="evenodd" d="M6.951 3.181C8.00648 3.18126 9.01865 3.60067 9.76499 4.34701C10.5113 5.09334 10.9307 6.10552 10.931 7.161L10.925 7.365C10.8725 8.38386 10.4308 9.34367 9.6911 10.0463C8.95142 10.749 7.97021 11.1408 6.95 11.141L6.745 11.135C5.71101 11.0783 4.73985 10.6208 4.0377 9.85961C3.33555 9.09847 2.95771 8.09363 2.98439 7.05844C3.01107 6.02324 3.44017 5.0392 4.1806 4.31523C4.92102 3.59127 5.91446 3.1844 6.95 3.181M6.95 3.979C6.10608 3.979 5.29673 4.31425 4.69999 4.91099C4.10325 5.50773 3.768 6.31708 3.768 7.161C3.768 8.00492 4.10325 8.81427 4.69999 9.41101C5.29673 10.0078 6.10608 10.343 6.95 10.343C7.79392 10.343 8.60327 10.0078 9.20001 9.41101C9.79676 8.81427 10.132 8.00492 10.132 7.161C10.132 6.31708 9.79676 5.50773 9.20001 4.91099C8.60327 4.31425 7.79392 3.979 6.95 3.979Z" fill="#14B698"/>
<path fill-rule="evenodd" clip-rule="evenodd" d="M6.951 1.192C8.53417 1.192 10.0525 1.82084 11.1721 2.94022C12.2916 4.0596 12.9207 5.57783 12.921 7.161L12.913 7.468C12.8701 8.31652 12.6454 9.14591 12.254 9.9L13.627 11.271C13.9534 11.6141 14.1328 12.0711 14.1269 12.5446C14.121 13.0181 13.9302 13.4706 13.5954 13.8054C13.2606 14.1402 12.8081 14.331 12.3346 14.3369C11.8611 14.3428 11.4041 14.1634 11.061 13.837L9.69 12.466C8.84343 12.9048 7.90352 13.1329 6.95 13.131L6.643 13.123C5.09513 13.0338 3.64268 12.3459 2.59295 11.2049C1.54322 10.0639 0.978561 8.55924 1.01845 7.00931C1.05833 5.45939 1.69963 3.98577 2.80665 2.90026C3.91368 1.81474 5.39959 1.20247 6.95 1.193M11.869 10.541C11.4538 11.1435 10.9323 11.6654 10.33 12.081L11.574 13.325C11.7801 13.5199 12.054 13.6268 12.3377 13.6228C12.6213 13.6188 12.8922 13.5043 13.0927 13.3037C13.2932 13.1031 13.4075 12.8321 13.4113 12.5485C13.4151 12.2648 13.3081 11.9909 13.113 11.785L11.869 10.541ZM6.951 1.99C5.5793 1.99013 4.26383 2.53517 3.29399 3.5052C2.32415 4.47523 1.77937 5.7908 1.7795 7.1625C1.77963 8.5342 2.32466 9.84967 3.2947 10.8195C4.26473 11.7894 5.5803 12.3341 6.952 12.334C7.6312 12.3339 8.30373 12.2001 8.9312 11.9401C9.55867 11.6801 10.1288 11.2991 10.609 10.8188C11.0892 10.3385 11.4701 9.7683 11.73 9.14078C11.9899 8.51326 12.1236 7.8407 12.1235 7.1615C12.1234 6.4823 11.9896 5.80977 11.7296 5.1823C11.4696 4.55483 11.0886 3.98471 10.6083 3.50449C10.128 3.02427 9.5578 2.64336 8.93028 2.3835C8.30276 2.12365 7.6302 1.98994 6.951 1.99Z" fill="#14B698"/>
</svg>
