<svg width="56" height="56" viewBox="0 0 56 56" fill="none" xmlns="http://www.w3.org/2000/svg">
<path d="M51.5152 26.4219C50.6951 26.4219 50.0304 27.0867 50.0304 27.9067C50.0304 40.1253 40.1253 50.0304 27.9067 50.0304C27.0867 50.0304 26.4219 50.6951 26.4219 51.5152C26.4219 52.3352 27.0866 53 27.9067 53C41.7653 53 53 41.7653 53 27.9067C53 27.0866 52.3352 26.4219 51.5152 26.4219Z" fill="#005EB8"/>
<path d="M42.5534 35.9375C43.9813 33.6081 45.3622 30.5023 45.0905 26.1542C44.5278 17.1473 36.3699 10.3145 28.6667 11.0549C25.651 11.3448 22.5545 13.803 22.8296 18.2059C22.9491 20.1193 23.8856 21.2486 25.4076 22.1168C26.8562 22.9432 28.7173 23.4667 30.8271 24.0601C33.3756 24.7769 36.3318 25.582 38.6039 27.2564C41.327 29.2631 43.1885 31.5894 42.5534 35.9375Z" fill="#003B5C"/>
<path d="M13.5716 20.1875C12.1437 22.5169 10.7628 25.6227 11.0344 29.9708C11.5972 38.9777 19.7551 45.8105 27.4583 45.07C30.474 44.7802 33.5705 42.322 33.2954 37.9191C33.1759 36.0057 32.2394 34.8764 30.7174 34.0082C29.2688 33.1818 27.4077 32.6583 25.2979 32.0649C22.7493 31.3481 19.7932 30.5429 17.5211 28.8686C14.798 26.8619 12.9365 24.5356 13.5716 20.1875Z" fill="#005EB8"/>
</svg>
