<svg width="16" height="16" viewBox="0 0 16 16" fill="none" xmlns="http://www.w3.org/2000/svg">
<path fill-rule="evenodd" clip-rule="evenodd" d="M5.4379 2.65537C4.65685 1.87432 3.39052 1.87432 2.60947 2.65537C1.82842 3.43642 1.82842 4.70274 2.60947 5.48379C2.82601 5.70033 3.15334 5.86577 3.56651 5.9802C3.97563 6.09351 4.43324 6.147 4.87169 6.16512C5.30801 6.18316 5.71119 6.16567 6.00605 6.14342C6.03611 6.14115 6.065 6.13883 6.09263 6.13651C6.09501 6.10952 6.09738 6.08133 6.09971 6.05202C6.12303 5.75855 6.14179 5.35708 6.12462 4.92208C6.10738 4.48499 6.05435 4.02831 5.94055 3.619C5.82575 3.20609 5.65873 2.8762 5.4379 2.65537ZM6.54482 6.59072C7.03924 6.6652 7.03928 6.66495 7.03928 6.66495L7.03945 6.66378L7.03983 6.66123L7.04105 6.65282L7.04518 6.62313C7.04862 6.59778 7.05335 6.56146 7.05883 6.5154C7.06979 6.42334 7.0838 6.29202 7.09657 6.13121C7.12205 5.81055 7.14299 5.36784 7.12385 4.88265C7.10478 4.39955 7.04549 3.86003 6.90401 3.35114C6.76353 2.84586 6.5323 2.33556 6.145 1.94826C4.97343 0.776687 3.07393 0.776687 1.90236 1.94826C0.730788 3.11983 0.730788 5.01933 1.90236 6.1909C2.28671 6.57525 2.79593 6.80443 3.2996 6.94392C3.80731 7.08453 4.34682 7.14428 4.83038 7.16427C5.31606 7.18435 5.75977 7.16485 6.08131 7.14058C6.24255 7.12841 6.37426 7.11495 6.46658 7.1044C6.51277 7.09913 6.54919 7.09457 6.57459 7.09125L6.60433 7.08727L6.61274 7.08609L6.61528 7.08573L6.61644 7.08556C6.61644 7.08556 6.61669 7.08552 6.54482 6.59072ZM6.54482 6.59072L6.61644 7.08556L6.98395 7.03218L7.03928 6.66495L6.54482 6.59072ZM13.2733 2.65537C12.4923 1.87432 11.226 1.87432 10.4449 2.65537C10.2315 2.86877 10.0719 3.18864 9.96507 3.59192C9.85914 3.99171 9.81427 4.43858 9.80475 4.86717C9.79528 5.2936 9.82105 5.68732 9.84948 5.97525C9.85273 6.00813 9.856 6.03957 9.85926 6.06945C9.88914 6.0727 9.92058 6.07598 9.95346 6.07923C10.2414 6.10766 10.6351 6.13343 11.0615 6.12396C11.4901 6.11444 11.937 6.06957 12.3368 5.96365C12.7401 5.85679 13.0599 5.6972 13.2733 5.48379C14.0544 4.70274 14.0544 3.43642 13.2733 2.65537ZM9.41399 6.51472C8.92116 6.59909 8.92112 6.59884 8.92112 6.59884L8.92092 6.59767L8.92049 6.59514L8.91912 6.58683L8.91445 6.55757C8.91055 6.53259 8.90518 6.49685 8.89888 6.45152C8.88629 6.36092 8.86995 6.23172 8.85432 6.07352C8.82318 5.75811 8.79439 5.3225 8.80499 4.84497C8.81555 4.36961 8.86539 3.83788 8.99842 3.3358C9.13052 2.83722 9.35414 2.33193 9.73781 1.94826C10.9094 0.776687 12.8089 0.776688 13.9805 1.94826C15.152 3.11983 15.152 5.01933 13.9805 6.1909C13.5968 6.57457 13.0915 6.79819 12.5929 6.93029C12.0908 7.06332 11.5591 7.11316 11.0837 7.12372C10.6062 7.13432 10.1706 7.10553 9.8552 7.07439C9.69699 7.05877 9.56779 7.04243 9.47719 7.02983C9.43187 7.02353 9.39612 7.01816 9.37114 7.01426L9.34188 7.00959L9.33357 7.00822L9.33105 7.00779L9.32988 7.0076C9.32988 7.0076 9.32962 7.00755 9.41399 6.51472ZM9.41399 6.51472L9.32988 7.0076L8.98086 6.94785L8.92112 6.59884L9.41399 6.51472ZM6.61644 8.79186C6.61644 8.79186 6.61669 8.79189 6.54482 9.2867C7.03924 9.21222 7.03928 9.21247 7.03928 9.21247L7.03945 9.21364L7.03983 9.21619L7.04105 9.2246L7.04518 9.25429C7.04862 9.27964 7.05335 9.31596 7.05883 9.36201C7.06979 9.45408 7.0838 9.5854 7.09657 9.74621C7.12205 10.0669 7.14299 10.5096 7.12385 10.9948C7.10478 11.4779 7.04549 12.0174 6.90401 12.5263C6.76353 13.0316 6.5323 13.5419 6.145 13.9292C4.97343 15.1007 3.07393 15.1007 1.90236 13.9292C0.730788 12.7576 0.730788 10.8581 1.90236 9.68652C2.28671 9.30217 2.79593 9.07299 3.2996 8.9335C3.80731 8.79288 4.34682 8.73314 4.83038 8.71315C5.31606 8.69307 5.75977 8.71257 6.08131 8.73683C6.24255 8.749 6.37426 8.76247 6.46658 8.77301C6.51277 8.77829 6.54919 8.78285 6.57459 8.78617L6.60433 8.79015L6.61274 8.79133L6.61528 8.79169L6.61644 8.79186ZM6.54482 9.2867L7.03928 9.21247L6.98395 8.84524L6.61644 8.79186L6.54482 9.2867ZM6.09263 9.74091C6.065 9.73858 6.03611 9.73627 6.00605 9.734C5.71119 9.71175 5.30801 9.69425 4.87169 9.71229C4.43324 9.73042 3.97563 9.78391 3.56651 9.89722C3.15334 10.0116 2.82601 10.1771 2.60947 10.3936C1.82842 11.1747 1.82842 12.441 2.60947 13.2221C3.39052 14.0031 4.65685 14.0031 5.4379 13.2221C5.65873 13.0012 5.82575 12.6713 5.94055 12.2584C6.05435 11.8491 6.10738 11.3924 6.12462 10.9553C6.14179 10.5203 6.12303 10.1189 6.09971 9.8254C6.09738 9.79609 6.09501 9.76789 6.09263 9.74091ZM12.5929 8.94713C13.0915 9.07923 13.5968 9.30285 13.9805 9.68652C15.152 10.8581 15.152 12.7576 13.9805 13.9292C12.8089 15.1007 10.9094 15.1007 9.73781 13.9292C9.35414 13.5455 9.13052 13.0402 8.99842 12.5416C8.86539 12.0395 8.81555 11.5078 8.80499 11.0324C8.79439 10.5549 8.82318 10.1193 8.85432 9.8039C8.86995 9.6457 8.88629 9.5165 8.89888 9.4259C8.90518 9.38057 8.91055 9.34482 8.91445 9.31985L8.91912 9.29059L8.92049 9.28228L8.92092 9.27975L8.92112 9.27858C8.92112 9.27858 8.92116 9.27833 9.41399 9.3627C9.32962 8.86987 9.32988 8.86982 9.32988 8.86982L9.33105 8.86962L9.33357 8.8692L9.34188 8.86782L9.37114 8.86316C9.39612 8.85926 9.43187 8.85389 9.47719 8.84759C9.56779 8.83499 9.69699 8.81865 9.8552 8.80303C10.1706 8.77188 10.6062 8.7431 11.0837 8.7537C11.5591 8.76426 12.0908 8.8141 12.5929 8.94713ZM9.41399 9.3627L9.32988 8.86982L8.98086 8.92957L8.92112 9.27858L9.41399 9.3627ZM9.85926 9.80797C9.85601 9.83785 9.85273 9.86929 9.84948 9.90217C9.82105 10.1901 9.79528 10.5838 9.80475 11.0102C9.81427 11.4388 9.85914 11.8857 9.96507 12.2855C10.0719 12.6888 10.2315 13.0086 10.4449 13.2221C11.226 14.0031 12.4923 14.0031 13.2733 13.2221C14.0544 12.441 14.0544 11.1747 13.2733 10.3936C13.0599 10.1802 12.7401 10.0206 12.3368 9.91377C11.937 9.80785 11.4901 9.76297 11.0615 9.75346C10.6351 9.74399 10.2414 9.76976 9.95346 9.79819C9.92058 9.80144 9.88914 9.80471 9.85926 9.80797Z" fill="#2A3947"/>
</svg>
